<?xml version="1.0" standalone="no"?><!-- Generator: Gravit.io --><svg xmlns="http://www.w3.org/2000/svg" xmlns:xlink="http://www.w3.org/1999/xlink" style="isolation:isolate" viewBox="0 0 375 627" width="375" height="627"><defs><clipPath id="_clipPath_YXu6KlhIbg9IbeHgqKa9SsfppzsZ4zd9"><rect width="375" height="627"/></clipPath></defs><g clip-path="url(#_clipPath_YXu6KlhIbg9IbeHgqKa9SsfppzsZ4zd9)"><g transform="matrix(1,0,0,1,131.5,23)"><text transform="matrix(1,0,0,1,0.244,21.377)" style="font-family:&quot;Open Sans&quot;;font-weight:700;font-size:20px;font-style:normal;fill:#979797;stroke:none;">BLONJOAN</text></g><path d=" M 329 37.137 C 329 29.335 335.335 23 343.137 23 C 350.94 23 357.275 29.335 357.275 37.137 C 357.275 44.94 350.94 51.275 343.137 51.275 C 335.335 51.275 329 44.94 329 37.137 Z " fill="rgb(232,232,232)"/><path d=" M 17 37.137 C 17 29.335 23.335 23 31.137 23 C 38.94 23 45.275 29.335 45.275 37.137 C 45.275 44.94 38.94 51.275 31.137 51.275 C 23.335 51.275 17 44.94 17 37.137 Z " fill="rgb(232,232,232)"/><rect x="17" y="548" width="340.275" height="60.549" transform="matrix(1,0,0,1,0,0)" fill="rgb(223,223,223)"/><rect x="251.819" y="562.775" width="37.5" height="8" transform="matrix(1,0,0,1,0,0)" fill="rgb(204,204,204)"/><rect x="35" y="566.775" width="93.137" height="8" transform="matrix(1,0,0,1,0,0)" fill="rgb(204,204,204)"/><rect x="35" y="585.412" width="37.5" height="9.363" transform="matrix(-1,0,0,-1,107.5,1180.186)" fill="rgb(204,204,204)"/><rect x="251.819" y="579.049" width="37.5" height="18.725" transform="matrix(1,0,0,1,0,0)" fill="rgb(204,204,204)"/><rect x="305.637" y="562.775" width="37.5" height="8" transform="matrix(1,0,0,1,0,0)" fill="rgb(204,204,204)"/><rect x="305.637" y="579.049" width="37.5" height="18.725" transform="matrix(1,0,0,1,0,0)" fill="rgb(204,204,204)"/><g id="Group"><rect x="17" y="391.745" width="340.275" height="60.549" transform="matrix(1,0,0,1,0,0)" fill="rgb(223,223,223)"/><rect x="17" y="391.745" width="62" height="60.549" transform="matrix(1,0,0,1,0,0)" fill="rgb(204,204,204)"/><rect x="94" y="405.745" width="93.137" height="8" transform="matrix(1,0,0,1,0,0)" fill="rgb(204,204,204)"/><rect x="94" y="422.02" width="37.5" height="18.725" transform="matrix(1,0,0,1,0,0)" fill="rgb(204,204,204)"/><rect x="251.819" y="405.745" width="37.5" height="8" transform="matrix(1,0,0,1,0,0)" fill="rgb(204,204,204)"/><rect x="251.819" y="422.02" width="37.5" height="18.725" transform="matrix(1,0,0,1,0,0)" fill="rgb(204,204,204)"/><rect x="305.637" y="405.745" width="37.5" height="8" transform="matrix(1,0,0,1,0,0)" fill="rgb(204,204,204)"/><rect x="305.637" y="422.02" width="37.5" height="18.725" transform="matrix(1,0,0,1,0,0)" fill="rgb(204,204,204)"/></g><g id="Group"><rect x="17" y="455.294" width="340.275" height="60.549" transform="matrix(1,0,0,1,0,0)" fill="rgb(223,223,223)"/><rect x="17" y="455.294" width="62" height="60.549" transform="matrix(1,0,0,1,0,0)" fill="rgb(204,204,204)"/><rect x="94" y="469.294" width="93.137" height="8" transform="matrix(1,0,0,1,0,0)" fill="rgb(204,204,204)"/><rect x="94" y="485.569" width="37.5" height="18.725" transform="matrix(1,0,0,1,0,0)" fill="rgb(204,204,204)"/><rect x="251.819" y="469.294" width="37.5" height="8" transform="matrix(1,0,0,1,0,0)" fill="rgb(204,204,204)"/><rect x="251.819" y="485.569" width="37.5" height="18.725" transform="matrix(1,0,0,1,0,0)" fill="rgb(204,204,204)"/><rect x="305.637" y="469.294" width="37.5" height="8" transform="matrix(1,0,0,1,0,0)" fill="rgb(204,204,204)"/><rect x="305.637" y="485.569" width="37.5" height="18.725" transform="matrix(1,0,0,1,0,0)" fill="rgb(204,204,204)"/></g><g id="Group"><rect x="17" y="329.196" width="340.275" height="60.549" transform="matrix(1,0,0,1,0,0)" fill="rgb(223,223,223)"/><rect x="17" y="329.196" width="62" height="60.549" transform="matrix(1,0,0,1,0,0)" fill="rgb(204,204,204)"/><rect x="94" y="343.196" width="93.137" height="8" transform="matrix(1,0,0,1,0,0)" fill="rgb(204,204,204)"/><rect x="94" y="359.471" width="37.5" height="18.725" transform="matrix(1,0,0,1,0,0)" fill="rgb(204,204,204)"/><rect x="251.819" y="343.196" width="37.5" height="8" transform="matrix(1,0,0,1,0,0)" fill="rgb(204,204,204)"/><rect x="251.819" y="359.471" width="37.5" height="18.725" transform="matrix(1,0,0,1,0,0)" fill="rgb(204,204,204)"/><rect x="305.637" y="343.196" width="37.5" height="8" transform="matrix(1,0,0,1,0,0)" fill="rgb(204,204,204)"/><rect x="305.637" y="359.471" width="37.5" height="18.725" transform="matrix(1,0,0,1,0,0)" fill="rgb(204,204,204)"/></g><g id="Group"><rect x="17" y="266.647" width="340.275" height="60.549" transform="matrix(1,0,0,1,0,0)" fill="rgb(223,223,223)"/><rect x="17" y="266.647" width="62" height="60.549" transform="matrix(1,0,0,1,0,0)" fill="rgb(204,204,204)"/><rect x="94" y="280.647" width="93.137" height="8" transform="matrix(1,0,0,1,0,0)" fill="rgb(204,204,204)"/><rect x="94" y="296.922" width="37.5" height="18.725" transform="matrix(1,0,0,1,0,0)" fill="rgb(204,204,204)"/><rect x="251.819" y="280.647" width="37.5" height="8" transform="matrix(1,0,0,1,0,0)" fill="rgb(204,204,204)"/><rect x="251.819" y="296.922" width="37.5" height="18.725" transform="matrix(1,0,0,1,0,0)" fill="rgb(204,204,204)"/><rect x="305.637" y="280.647" width="37.5" height="8" transform="matrix(1,0,0,1,0,0)" fill="rgb(204,204,204)"/><rect x="305.637" y="296.922" width="37.5" height="18.725" transform="matrix(1,0,0,1,0,0)" fill="rgb(204,204,204)"/></g><g id="Group"><rect x="17" y="203.098" width="340.275" height="60.549" transform="matrix(1,0,0,1,0,0)" fill="rgb(223,223,223)"/><rect x="17" y="203.098" width="62" height="60.549" transform="matrix(1,0,0,1,0,0)" fill="rgb(204,204,204)"/><rect x="94" y="217.098" width="93.137" height="8" transform="matrix(1,0,0,1,0,0)" fill="rgb(204,204,204)"/><rect x="94" y="233.373" width="37.5" height="18.725" transform="matrix(1,0,0,1,0,0)" fill="rgb(204,204,204)"/><rect x="251.819" y="217.098" width="37.5" height="8" transform="matrix(1,0,0,1,0,0)" fill="rgb(204,204,204)"/><rect x="251.819" y="233.373" width="37.5" height="18.725" transform="matrix(1,0,0,1,0,0)" fill="rgb(204,204,204)"/><rect x="305.637" y="217.098" width="37.5" height="8" transform="matrix(1,0,0,1,0,0)" fill="rgb(204,204,204)"/><rect x="305.637" y="233.373" width="37.5" height="18.725" transform="matrix(1,0,0,1,0,0)" fill="rgb(204,204,204)"/></g><g id="Group"><rect x="17" y="139.549" width="340.275" height="60.549" transform="matrix(1,0,0,1,0,0)" fill="rgb(223,223,223)"/><rect x="17" y="139.549" width="62" height="60.549" transform="matrix(1,0,0,1,0,0)" fill="rgb(204,204,204)"/><rect x="94" y="153.549" width="93.137" height="8" transform="matrix(1,0,0,1,0,0)" fill="rgb(204,204,204)"/><rect x="94" y="169.824" width="37.5" height="18.725" transform="matrix(1,0,0,1,0,0)" fill="rgb(204,204,204)"/><rect x="251.819" y="153.549" width="37.5" height="8" transform="matrix(1,0,0,1,0,0)" fill="rgb(204,204,204)"/><rect x="251.819" y="169.824" width="37.5" height="18.725" transform="matrix(1,0,0,1,0,0)" fill="rgb(204,204,204)"/><rect x="305.637" y="153.549" width="37.5" height="8" transform="matrix(1,0,0,1,0,0)" fill="rgb(204,204,204)"/><rect x="305.637" y="169.824" width="37.5" height="18.725" transform="matrix(1,0,0,1,0,0)" fill="rgb(204,204,204)"/></g><g id="Group"><rect x="17" y="76" width="340.275" height="60.549" transform="matrix(1,0,0,1,0,0)" fill="rgb(223,223,223)"/><rect x="17" y="76" width="62" height="60.549" transform="matrix(1,0,0,1,0,0)" fill="rgb(204,204,204)"/><rect x="94" y="90" width="93.137" height="8" transform="matrix(1,0,0,1,0,0)" fill="rgb(204,204,204)"/><rect x="94" y="106.275" width="37.5" height="18.725" transform="matrix(1,0,0,1,0,0)" fill="rgb(204,204,204)"/><rect x="251.819" y="90" width="37.5" height="8" transform="matrix(1,0,0,1,0,0)" fill="rgb(204,204,204)"/><rect x="251.819" y="106.275" width="37.5" height="18.725" transform="matrix(1,0,0,1,0,0)" fill="rgb(204,204,204)"/><rect x="305.637" y="90" width="37.5" height="8" transform="matrix(1,0,0,1,0,0)" fill="rgb(204,204,204)"/><rect x="305.637" y="106.275" width="37.5" height="18.725" transform="matrix(1,0,0,1,0,0)" fill="rgb(204,204,204)"/></g><path d=" M 167.5 548 C 167.5 536.962 176.462 528 187.5 528 C 198.538 528 207.5 536.962 207.5 548 C 207.5 559.038 198.538 568 187.5 568 C 176.462 568 167.5 559.038 167.5 548 Z " fill="rgb(187,187,187)"/></g></svg>