<?xml version="1.0" standalone="no"?><!-- Generator: Gravit.io --><svg xmlns="http://www.w3.org/2000/svg" xmlns:xlink="http://www.w3.org/1999/xlink" style="isolation:isolate" viewBox="0 0 375 627" width="375" height="627"><defs><clipPath id="_clipPath_ZO4dq2dI2izugddCwXY0MXI2YwtNpmMq"><rect width="375" height="627"/></clipPath></defs><g clip-path="url(#_clipPath_ZO4dq2dI2izugddCwXY0MXI2YwtNpmMq)"><rect x="0" y="0" width="375" height="60.549" transform="matrix(1,0,0,1,0,0)" fill="rgb(204,204,204)"/><rect x="121.5" y="25" width="132" height="13" transform="matrix(1,0,0,1,0,0)" fill="rgb(234,234,234)"/><path d=" M 17 30.275 C 17 22.472 23.335 16.137 31.137 16.137 C 38.94 16.137 45.275 22.472 45.275 30.275 C 45.275 38.077 38.94 44.412 31.137 44.412 C 23.335 44.412 17 38.077 17 30.275 Z " fill="rgb(232,232,232)"/><path d=" M 328.221 30.275 C 328.221 22.472 334.556 16.137 342.358 16.137 C 350.161 16.137 356.495 22.472 356.495 30.275 C 356.495 38.077 350.161 44.412 342.358 44.412 C 334.556 44.412 328.221 38.077 328.221 30.275 Z " fill="rgb(232,232,232)"/><rect x="16" y="76" width="110.779" height="112" transform="matrix(1,0,0,1,0,0)" fill="rgb(240,240,240)"/><rect x="26.779" y="198" width="89.221" height="9" transform="matrix(1,0,0,1,0,0)" fill="rgb(240,240,240)"/><rect x="44.779" y="217" width="53.221" height="21" transform="matrix(1,0,0,1,0,0)" fill="rgb(240,240,240)"/><rect x="143.39" y="198" width="89.221" height="9" transform="matrix(1,0,0,1,0,0)" fill="rgb(240,240,240)"/><rect x="161.39" y="217" width="53.221" height="21" transform="matrix(1,0,0,1,0,0)" fill="rgb(240,240,240)"/><rect x="260" y="198" width="89.221" height="9" transform="matrix(1,0,0,1,0,0)" fill="rgb(240,240,240)"/><rect x="278" y="217" width="53.221" height="21" transform="matrix(1,0,0,1,0,0)" fill="rgb(240,240,240)"/><rect x="132.61" y="76" width="110.779" height="112" transform="matrix(1,0,0,1,0,0)" fill="rgb(240,240,240)"/><rect x="249.221" y="76" width="110.779" height="112" transform="matrix(1,0,0,1,0,0)" fill="rgb(240,240,240)"/><rect x="16" y="259" width="110.779" height="112" transform="matrix(1,0,0,1,0,0)" fill="rgb(240,240,240)"/><rect x="26.779" y="381" width="89.221" height="9" transform="matrix(1,0,0,1,0,0)" fill="rgb(240,240,240)"/><rect x="44.779" y="400" width="53.221" height="21" transform="matrix(1,0,0,1,0,0)" fill="rgb(240,240,240)"/><rect x="143.39" y="381" width="89.221" height="9" transform="matrix(1,0,0,1,0,0)" fill="rgb(240,240,240)"/><rect x="161.39" y="400" width="53.221" height="21" transform="matrix(1,0,0,1,0,0)" fill="rgb(240,240,240)"/><rect x="260" y="381" width="89.221" height="9" transform="matrix(1,0,0,1,0,0)" fill="rgb(240,240,240)"/><rect x="278" y="400" width="53.221" height="21" transform="matrix(1,0,0,1,0,0)" fill="rgb(240,240,240)"/><rect x="132.61" y="259" width="110.779" height="112" transform="matrix(1,0,0,1,0,0)" fill="rgb(240,240,240)"/><rect x="249.221" y="259" width="110.779" height="112" transform="matrix(1,0,0,1,0,0)" fill="rgb(240,240,240)"/><rect x="16" y="442" width="110.779" height="112" transform="matrix(1,0,0,1,0,0)" fill="rgb(240,240,240)"/><rect x="26.779" y="564" width="89.221" height="9" transform="matrix(1,0,0,1,0,0)" fill="rgb(240,240,240)"/><rect x="44.779" y="583" width="53.221" height="21" transform="matrix(1,0,0,1,0,0)" fill="rgb(240,240,240)"/><rect x="143.39" y="564" width="89.221" height="9" transform="matrix(1,0,0,1,0,0)" fill="rgb(240,240,240)"/><rect x="161.39" y="583" width="53.221" height="21" transform="matrix(1,0,0,1,0,0)" fill="rgb(240,240,240)"/><rect x="260" y="564" width="89.221" height="9" transform="matrix(1,0,0,1,0,0)" fill="rgb(240,240,240)"/><rect x="278" y="583" width="53.221" height="21" transform="matrix(1,0,0,1,0,0)" fill="rgb(240,240,240)"/><rect x="132.61" y="442" width="110.779" height="112" transform="matrix(1,0,0,1,0,0)" fill="rgb(240,240,240)"/><rect x="249.221" y="442" width="110.779" height="112" transform="matrix(1,0,0,1,0,0)" fill="rgb(240,240,240)"/></g></svg>