<?xml version="1.0" standalone="no"?><!-- Generator: Gravit.io --><svg xmlns="http://www.w3.org/2000/svg" xmlns:xlink="http://www.w3.org/1999/xlink" style="isolation:isolate" viewBox="0 0 375 627" width="375" height="627"><defs><clipPath id="_clipPath_Hh4odNePK3WyWEf18s0vB2luBly4HUHr"><rect width="375" height="627"/></clipPath></defs><g clip-path="url(#_clipPath_Hh4odNePK3WyWEf18s0vB2luBly4HUHr)"><rect x="31.137" y="388" width="94.149" height="16" transform="matrix(1,0,0,1,0,0)" fill="rgb(204,204,204)"/><rect x="31.137" y="414" width="148.849" height="44" transform="matrix(1,0,0,1,0,0)" fill="rgb(204,204,204)"/><rect x="193.509" y="388" width="94.149" height="16" transform="matrix(1,0,0,1,0,0)" fill="rgb(204,204,204)"/><rect x="193.509" y="414" width="148.849" height="44" transform="matrix(1,0,0,1,0,0)" fill="rgb(204,204,204)"/><rect x="0" y="0" width="375" height="60.549" transform="matrix(1,0,0,1,0,0)" fill="rgb(204,204,204)"/><rect x="0" y="60.549" width="375" height="158.451" transform="matrix(1,0,0,1,0,0)" fill="rgb(227,227,227)"/><rect x="46.027" y="240.967" width="282.946" height="34.067" transform="matrix(1,0,0,1,0,0)" fill="rgb(204,204,204)"/><rect x="93.781" y="292" width="187.438" height="39" transform="matrix(1,0,0,1,0,0)" fill="rgb(204,204,204)"/><rect x="31.137" y="551" width="311.221" height="49" transform="matrix(1,0,0,1,0,0)" fill="rgb(204,204,204)"/><rect x="121.5" y="25" width="132" height="13" transform="matrix(1,0,0,1,0,0)" fill="rgb(234,234,234)"/><path d=" M 17 30.275 C 17 22.472 23.335 16.137 31.137 16.137 C 38.94 16.137 45.275 22.472 45.275 30.275 C 45.275 38.077 38.94 44.412 31.137 44.412 C 23.335 44.412 17 38.077 17 30.275 Z " fill="rgb(232,232,232)"/><path d=" M 328.221 30.275 C 328.221 22.472 334.556 16.137 342.358 16.137 C 350.161 16.137 356.495 22.472 356.495 30.275 C 356.495 38.077 350.161 44.412 342.358 44.412 C 334.556 44.412 328.221 38.077 328.221 30.275 Z " fill="rgb(232,232,232)"/></g></svg>