<?xml version="1.0" standalone="no"?><!-- Generator: Gravit.io --><svg xmlns="http://www.w3.org/2000/svg" xmlns:xlink="http://www.w3.org/1999/xlink" style="isolation:isolate" viewBox="0 0 375 627" width="375" height="627"><defs><clipPath id="_clipPath_3hKkPDGDmqD2O3G5VTo4vG2mBiLZqat7"><rect width="375" height="627"/></clipPath></defs><g clip-path="url(#_clipPath_3hKkPDGDmqD2O3G5VTo4vG2mBiLZqat7)"><rect x="31.137" y="310" width="94.149" height="16" transform="matrix(1,0,0,1,0,0)" fill="rgb(204,204,204)"/><rect x="31.137" y="336" width="148.849" height="44" transform="matrix(1,0,0,1,0,0)" fill="rgb(204,204,204)"/><rect x="193.509" y="310" width="94.149" height="16" transform="matrix(1,0,0,1,0,0)" fill="rgb(204,204,204)"/><rect x="193.509" y="336" width="148.849" height="44" transform="matrix(1,0,0,1,0,0)" fill="rgb(204,204,204)"/><rect x="0" y="0" width="375" height="60.549" transform="matrix(1,0,0,1,0,0)" fill="rgb(204,204,204)"/><rect x="132" y="90" width="111" height="99" transform="matrix(1,0,0,1,0,0)" fill="rgb(204,204,204)"/><rect x="31.137" y="226" width="111" height="16" transform="matrix(1,0,0,1,0,0)" fill="rgb(204,204,204)"/><rect x="31.137" y="252" width="311.221" height="44" transform="matrix(1,0,0,1,0,0)" fill="rgb(204,204,204)"/><rect x="31.137" y="551" width="311.221" height="49" transform="matrix(1,0,0,1,0,0)" fill="rgb(204,204,204)"/><rect x="121.5" y="25" width="132" height="13" transform="matrix(1,0,0,1,0,0)" fill="rgb(234,234,234)"/><path d=" M 17 30.275 C 17 22.472 23.335 16.137 31.137 16.137 C 38.94 16.137 45.275 22.472 45.275 30.275 C 45.275 38.077 38.94 44.412 31.137 44.412 C 23.335 44.412 17 38.077 17 30.275 Z " fill="rgb(232,232,232)"/><path d=" M 328.221 30.275 C 328.221 22.472 334.556 16.137 342.358 16.137 C 350.161 16.137 356.495 22.472 356.495 30.275 C 356.495 38.077 350.161 44.412 342.358 44.412 C 334.556 44.412 328.221 38.077 328.221 30.275 Z " fill="rgb(232,232,232)"/><path d=" M 31.137 417.5 C 31.137 406.738 39.875 398 50.637 398 C 61.4 398 70.137 406.738 70.137 417.5 C 70.137 428.262 61.4 437 50.637 437 C 39.875 437 31.137 428.262 31.137 417.5 Z " fill="rgb(232,232,232)"/></g></svg>